<svg xmlns:xlink="http://www.w3.org/1999/xlink" xmlns="http://www.w3.org/2000/svg" height="198.623606307364" width="350" style="width: 350px; height: 198.624px; position: absolute; top: 50%; left: 50%; transform: translate(-50%, -50%) scale(1); z-index: 0; cursor: pointer; overflow: visible;"><defs id="SvgjsDefs1001"><linearGradient id="SvgjsLinearGradient1011"><stop id="SvgjsStop1012" stop-color="#7d141d" offset="0"></stop><stop id="SvgjsStop1013" stop-color="#ff1e27" offset="1"></stop></linearGradient><linearGradient id="SvgjsLinearGradient1011"><stop id="SvgjsStop1012" stop-color="#7d141d" offset="0"></stop><stop id="SvgjsStop1013" stop-color="#ff1e27" offset="1"></stop></linearGradient><linearGradient id="SvgjsLinearGradient1011"><stop id="SvgjsStop1012" stop-color="#7d141d" offset="0"></stop><stop id="SvgjsStop1013" stop-color="#ff1e27" offset="1"></stop></linearGradient></defs><g id="SvgjsG1007" featurekey="symbolFeature-0" transform="matrix(0.12533291281763115,0,0,0.12533291281763115,104.9404668783643,-0.0595331216356968)" fill="#BF1922"><g xmlns="http://www.w3.org/2000/svg" fill="#BF1922">    <path d="M559,1102.5l10.6-10.6L36.7,559L559,36.7L1081.2,559l-532.8,532.8L559,1102.5l10.6-10.6L559,1102.5l10.6,10.6l543.4-543.4   c2.8-2.8,4.4-6.7,4.4-10.6c0-4-1.6-7.8-4.4-10.6L569.6,4.9c-5.9-5.9-15.4-5.9-21.2,0L4.9,548.4c-5.9,5.9-5.9,15.4,0,21.2   l543.5,543.5c2.8,2.8,6.7,4.4,10.6,4.4s7.8-1.6,10.6-4.4L559,1102.5z" fill="#BF1922"></path>    <path d="M559,937.8l10.6,10.6l378.8-378.7c2.8-2.8,4.4-6.7,4.4-10.6c0-4-1.6-7.8-4.4-10.6L569.6,169.6c-2.8-2.8-6.7-4.4-10.6-4.4   c-4,0-7.8,1.6-10.6,4.4L169.7,548.4c-5.9,5.9-5.9,15.4,0,21.2l378.7,378.8c2.8,2.8,6.7,4.4,10.6,4.4c4,0,7.8-1.6,10.6-4.4   L559,937.8l10.6-10.6L201.5,559L559,201.5L916.6,559L548.4,927.2L559,937.8l10.6-10.6L559,937.8z M773.1,559l-10.6-10.6L559,751.9   L366.2,559L559,366.2l203.4,203.5L773.1,559l-10.6-10.6L773.1,559l10.6-10.6l-214-214.1c-2.8-2.8-6.7-4.4-10.6-4.4   c-4,0-7.8,1.6-10.6,4.4L334.4,548.4c-5.9,5.9-5.9,15.4,0,21.2l214,214c5.9,5.9,15.4,5.9,21.2,0l214.1-214c5.9-5.9,5.9-15.4,0-21.2   L773.1,559z" fill="#BF1922"></path>    <path d="M509.7,559l10.6,10.6l38.8-38.8l28.2,28.2l-28.2,28.2l-38.8-38.8L509.7,559l10.6,10.6L509.7,559l-10.6,10.6l49.4,49.4   c2.8,2.8,6.7,4.4,10.6,4.4c4,0,7.8-1.6,10.6-4.4l49.4-49.4c2.8-2.8,4.4-6.7,4.4-10.6c0-4-1.6-7.8-4.4-10.6l-49.4-49.4   c-5.9-5.9-15.4-5.9-21.2,0l-49.4,49.4c-5.9,5.9-5.9,15.4,0,21.2L509.7,559z" fill="#BF1922"></path>    <path d="M559,1102.4l10.6-10.6L103.8,626.1c-5.9-5.9-15.4-5.9-21.2,0L5,703.7c-2.8,2.8-4.4,6.7-4.4,10.6c0,4,1.6,7.8,4.4,10.6   l543.4,543.5c2.8,2.8,6.7,4.4,10.6,4.4c4,0,7.8-1.6,10.6-4.4l543.5-543.5c2.8-2.8,4.4-6.7,4.4-10.6c0-4-1.6-7.8-4.4-10.6   l-77.6-77.6c-5.9-5.9-15.4-5.9-21.2,0l-465.8,465.8L559,1102.4l10.6-10.6L559,1102.4l10.6,10.6l455.2-455.2l56.4,56.4L559,1236.5   L36.8,714.3l56.4-56.4l455.2,455.2c5.9,5.9,15.4,5.9,21.2,0L559,1102.4z" fill="#BF1922"></path></g></g><g id="SvgjsG1008" featurekey="nameFeature-0" transform="matrix(0.6998432357986217,0,0,0.6998432357986217,-6.674225194917886e-7,170.62987687541914)" fill="url(&quot;#SvgjsLinearGradient1011&quot;)"><path d="M19.76 30.64 l1.8 -3.12 l5.44 9.36 l3.6 0 c-0.8 -1.28 -8.4 -14.28 -9.04 -15.56 l-7.84 13.6 l-2.92 5.08 l-10.8 0 c0.6 -1 4.64 -8.04 8.52 -14.8 c2.28 -3.96 4.8 -8.4 7.64 -13.24 l3.6 0 l-7.44 12.88 l-6.92 12.04 l3.6 0 c4.92 -8.68 8 -13.8 12.56 -21.8 c0.28 0.48 14.36 24.88 14.44 24.92 l-10.8 0 z M71.432 11.96 l9.2 0 l0 13.4 l-0.04 0 c-0.32 8.16 -6.92 14.64 -15.16 14.64 c-8.32 0 -15.16 -6.84 -15.16 -15.16 l0 -3.6 l13.32 0 l0 3.04 l-10.2 0 l0 0.56 c0 6.64 5.4 12.04 12.04 12.04 c6.6 0 11.92 -5.28 12.04 -11.84 l0 -10 l-3 0 l0 9.88 c0 4.96 -4.12 8.96 -9.04 8.96 c-4.16 0 -7.6 -2.84 -8.68 -6.56 l3.24 0 c0.92 2.08 3 3.52 5.44 3.52 c3.32 0 6 -2.68 6 -6 l0 -12.88 z M114.66400000000002 30.64 l1.8 -3.12 l5.44 9.36 l3.6 0 c-0.8 -1.28 -8.4 -14.28 -9.04 -15.56 l-7.84 13.6 l-2.92 5.08 l-10.8 0 c0.6 -1 4.64 -8.04 8.52 -14.8 c2.28 -3.96 4.8 -8.4 7.64 -13.24 l3.6 0 l-7.44 12.88 l-6.92 12.04 l3.6 0 c4.92 -8.68 8 -13.8 12.56 -21.8 c0.28 0.48 14.36 24.88 14.44 24.92 l-10.8 0 z M175.936 40 l-10.8 0 l-3.64 -6.28 l-7 0 l0 6.28 l-9.32 0 l0 -15.6 l22.88 0.04 c2.6 0 4.68 -2.12 4.68 -4.68 c0 -2.6 -2.08 -4.68 -4.68 -4.68 l-19.76 0 l0 3.12 l19.76 0 c0.84 0.04 1.48 0.72 1.48 1.56 s-0.64 1.52 -1.48 1.56 l-0.04 0 l-0.04 0 l-22.8 0 l0 -9.36 l22.88 0 c4.32 0 7.8 3.48 7.8 7.8 c0 4.28 -3.48 7.8 -7.8 7.8 l-19.76 -0.04 l0 9.36 l3.12 0 l0 -6.28 l11.88 0 c1.28 2.32 3.44 5.88 3.64 6.28 l3.6 0 c-0.32 -0.44 -2.16 -3.72 -3.64 -6.28 l3.6 0 c1.32 2.28 2.64 4.64 3.72 6.4 z M190.20800000000003 11.96 l17.2 0 c7.48 0.32 13.4 6.48 13.4 14 c0 7.56 -5.92 13.72 -13.4 14.04 l-17.2 0 l0 -21.8 l17.2 0 c4.04 0.32 7.24 3.64 7.24 7.8 c0 4 -3.08 7.44 -7.08 7.76 l-11.12 0 l0 -9.84 l3.12 0 l0 6.72 l7.84 -0.04 c2.36 -0.2 4.16 -2.24 4.16 -4.6 c0 -2.04 -1.28 -3.72 -3.08 -4.4 c-0.68 -0.28 -1.08 -0.28 -2.16 -0.28 l-13 0 l0 15.56 l14.08 0 c5.72 -0.32 10.28 -5.04 10.28 -10.92 c0 -5.8 -4.56 -10.56 -10.28 -10.88 l-17.2 0 l0 -3.12 z M242.84000000000003 40 l-9.36 0 l0 -28.04 l9.36 0 l0 21.8 l-3.12 0 l0 -18.68 l-3.12 0 l0 21.8 l6.24 0 l0 3.12 z M276.872 30.64 l1.8 -3.12 l5.44 9.36 l3.6 0 c-0.8 -1.28 -8.4 -14.28 -9.04 -15.56 l-7.84 13.6 l-2.92 5.08 l-10.8 0 c0.6 -1 4.64 -8.04 8.52 -14.8 c2.28 -3.96 4.8 -8.4 7.64 -13.24 l3.6 0 l-7.44 12.88 l-6.92 12.04 l3.6 0 c4.92 -8.68 8 -13.8 12.56 -21.8 c0.28 0.48 14.36 24.88 14.44 24.92 l-10.8 0 z M328.624 21.32 l0 -9.36 l9.36 0 l0 28.04 l-9.36 0 l0 -9.32 l-18.12 0 l0 6.2 l3.12 0 l0 -3.12 l3.12 0 l0 6.24 l-9.36 0 l0 -12.48 l24.4 0 l0 9.36 l3.08 0 l0 -21.8 l-3.08 0 l0 9.36 l-18.16 0 l0 -9.36 l-3.12 0 l0 9.36 l-3.12 0 l0 -12.48 l9.36 0 l0 9.36 l11.88 0 z M356.97600000000006 30.6 c2.56 0 4.72 2.16 4.72 4.72 c0 2.6 -2.16 4.68 -4.72 4.68 c-2.6 0 -4.68 -2.08 -4.68 -4.68 c0 -2.56 2.08 -4.72 4.68 -4.72 z M356.97600000000006 36.88 c0.92 0 1.56 -0.72 1.56 -1.56 c0 -0.92 -0.64 -1.56 -1.56 -1.56 c-0.84 0 -1.56 0.64 -1.56 1.56 c0 0.84 0.72 1.56 1.56 1.56 z M375.968 11.96 l17.2 0 c7.48 0.32 13.4 6.48 13.4 14 c0 7.56 -5.92 13.72 -13.4 14.04 l-17.2 0 l0 -21.8 l17.2 0 c4.04 0.32 7.24 3.64 7.24 7.8 c0 4 -3.08 7.44 -7.08 7.76 l-11.12 0 l0 -9.84 l3.12 0 l0 6.72 l7.84 -0.04 c2.36 -0.2 4.16 -2.24 4.16 -4.6 c0 -2.04 -1.28 -3.72 -3.08 -4.4 c-0.68 -0.28 -1.08 -0.28 -2.16 -0.28 l-13 0 l0 15.56 l14.08 0 c5.72 -0.32 10.28 -5.04 10.28 -10.92 c0 -5.8 -4.56 -10.56 -10.28 -10.88 l-17.2 0 l0 -3.12 z M449.84000000000003 11.96 l0 9.36 l-21.24 0 l0 3.12 l15.76 0 l0 3.12 l-18.88 0 l0 -9.36 l21.24 0 l0 -3.12 l-24.36 0 l0 21.8 l24.36 0 l0 -3.12 l-21.24 0 l0 -3.12 l24.36 0 l0 9.36 l-30.6 0 l0 -28.04 l30.6 0 z M489.312 11.96 l10.8 0 c-0.6 1 -4.64 8.04 -8.52 14.8 c-2.28 3.96 -4.8 8.4 -7.64 13.24 l-3.6 0 c0.32 -0.52 3.88 -6.8 7.4 -12.88 c2.04 -3.56 4.36 -7.6 6.96 -12.04 l-3.6 0 c-5.04 8.64 -7.96 13.8 -12.56 21.8 c-0.28 -0.48 -14.48 -24.88 -14.44 -24.92 l10.8 0 l5.44 9.36 l-1.8 3.12 l-5.44 -9.36 l-3.6 0 c0.8 1.28 8.28 14.32 9.04 15.56 l7.84 -13.6 z" fill="url(&quot;#SvgjsLinearGradient1011&quot;)"></path></g></svg>